<svg xmlns="http://www.w3.org/2000/svg" xmlns:xlink="http://www.w3.org/1999/xlink" width="240" height="37.882" viewBox="0 0 240 37.882">
  <defs>
    <clipPath id="clip-path">
      <rect id="사각형_2610" data-name="사각형 2610" width="240" height="37.882" transform="translate(0 0)" fill="#fff"/>
    </clipPath>
  </defs>
  <g id="그룹_5255" data-name="그룹 5255" transform="translate(11450 5221)">
    <g id="그룹_3625" data-name="그룹 3625" transform="translate(-11450 -5221)" clip-path="url(#clip-path)">
      <path id="패스_2190" data-name="패스 2190" d="M97.354,10.263A4.681,4.681,0,0,1,98.6,11.7a3.638,3.638,0,0,1,.476,1.805,3.816,3.816,0,0,1-.374,1.668,4.347,4.347,0,0,1-1.033,1.374,4.559,4.559,0,0,1-1.5.919,5.3,5.3,0,0,1-3.678,0,4.823,4.823,0,0,1-1.521-.919,4.517,4.517,0,0,1-1.011-1.374,3.823,3.823,0,0,1-.374-1.668,3.7,3.7,0,0,1,.465-1.805,4.425,4.425,0,0,1,1.26-1.442H88.909V8.538h3.882V6.29h3.065V8.538h3.883v1.725ZM95.4,23.567h9.671v1.725H94.448a2.151,2.151,0,0,1-1.521-.545,1.936,1.936,0,0,1-.591-1.5V19.208H95.4Zm-2.35-11.93A3.149,3.149,0,0,0,92.5,13.51a3.2,3.2,0,0,0,.556,1.885,1.433,1.433,0,0,0,2.565,0,3.2,3.2,0,0,0,.556-1.885,3.149,3.149,0,0,0-.556-1.873,1.442,1.442,0,0,0-2.565,0m8.3,8.752V6.494h3.065V10.83h3.065v1.749h-3.065v7.81Z" transform="translate(-46.465 -3.287)" fill="#fff"/>
      <path id="패스_2191" data-name="패스 2191" d="M132.684,7.326A5.2,5.2,0,0,1,134.33,8.36a4.691,4.691,0,0,1,1.112,1.51,4.315,4.315,0,0,1,.409,1.85,4.366,4.366,0,0,1-.409,1.873,4.691,4.691,0,0,1-1.112,1.51,5.188,5.188,0,0,1-1.646,1.033,5.45,5.45,0,0,1-2.032.374,5.537,5.537,0,0,1-2.043-.374,5.152,5.152,0,0,1-1.657-1.033,4.691,4.691,0,0,1-1.112-1.51,4.366,4.366,0,0,1-.409-1.873,4.316,4.316,0,0,1,.409-1.85,4.691,4.691,0,0,1,1.112-1.51,5.161,5.161,0,0,1,1.657-1.033,5.537,5.537,0,0,1,2.043-.375,5.45,5.45,0,0,1,2.032.375M129.132,9.6a3.551,3.551,0,0,0-.636,2.146,3.633,3.633,0,0,0,.624,2.168,1.82,1.82,0,0,0,1.51.874,1.86,1.86,0,0,0,1.51-.874,3.544,3.544,0,0,0,.647-2.168,3.554,3.554,0,0,0-.635-2.146,1.741,1.741,0,0,0-3.019,0m8.547,8.219a5.079,5.079,0,0,1,1.6.965,4.369,4.369,0,0,1,1.078,1.408,3.9,3.9,0,0,1,.4,1.725,3.949,3.949,0,0,1-.4,1.748,4.369,4.369,0,0,1-1.078,1.408,4.908,4.908,0,0,1-1.6.953,5.6,5.6,0,0,1-1.964.341,5.668,5.668,0,0,1-1.986-.341,4.912,4.912,0,0,1-1.6-.953,4.238,4.238,0,0,1-1.067-1.408,4.039,4.039,0,0,1-.386-1.748,3.99,3.99,0,0,1,.386-1.725,4.238,4.238,0,0,1,1.067-1.408,5.084,5.084,0,0,1,1.6-.965,5.513,5.513,0,0,1,1.986-.352,5.448,5.448,0,0,1,1.964.352m-3.383,2.2a3.144,3.144,0,0,0-.6,1.9,3.031,3.031,0,0,0,.6,1.884,1.664,1.664,0,0,0,2.838,0,3.032,3.032,0,0,0,.6-1.884,3.145,3.145,0,0,0-.6-1.9,1.629,1.629,0,0,0-2.838,0m6.573-13.156V9.154h3.065v1.725h-3.065v2.089h3.065v1.726h-3.065v2.474H137.8V6.861Z" transform="translate(-65.552 -3.585)" fill="#fff"/>
      <path id="패스_2192" data-name="패스 2192" d="M168.454,7.175v3.61a8.119,8.119,0,0,0,.386,2.543,7.5,7.5,0,0,0,1.044,2.089,6.2,6.2,0,0,0,1.521,1.5,4.493,4.493,0,0,0,1.794.749l-1.5,1.317a4.279,4.279,0,0,1-1.521-.4,7.487,7.487,0,0,1-1.453-.874,6.97,6.97,0,0,1-1.158-1.158,3.389,3.389,0,0,1-.659-1.294,3.791,3.791,0,0,1-.669,1.294,6.656,6.656,0,0,1-1.147,1.158,7.1,7.1,0,0,1-1.453.863,4.846,4.846,0,0,1-1.521.409l-1.5-1.317a4.42,4.42,0,0,0,1.771-.761,6.046,6.046,0,0,0,1.5-1.51,7.809,7.809,0,0,0,1.453-4.609V7.175Zm8.559,4.087h3.065v1.725h-3.065V25.564h-3.065V6.766h3.065Z" transform="translate(-83.943 -3.536)" fill="#fff"/>
      <path id="패스_2193" data-name="패스 2193" d="M207.985,7.686a5.828,5.828,0,0,1,1.748,1.124,5.445,5.445,0,0,1,1.181,1.68,4.893,4.893,0,0,1,.432,2.043,4.971,4.971,0,0,1-.432,2.055,5.135,5.135,0,0,1-1.181,1.668,5.645,5.645,0,0,1-1.748,1.112,5.682,5.682,0,0,1-4.234,0,5.68,5.68,0,0,1-1.737-1.112,5,5,0,0,1-1.169-1.668,5.087,5.087,0,0,1-.42-2.055,5.007,5.007,0,0,1,.42-2.043,5.293,5.293,0,0,1,1.169-1.68,5.868,5.868,0,0,1,1.737-1.124,5.544,5.544,0,0,1,4.234,0m-3.78,7.367a2.057,2.057,0,0,0,1.691,1,2.035,2.035,0,0,0,1.668-1.022,4.288,4.288,0,0,0,.715-2.52,4.2,4.2,0,0,0-.727-2.5,2.064,2.064,0,0,0-1.68-1.022,2.031,2.031,0,0,0-1.668,1.033,4.338,4.338,0,0,0-.715,2.531,4.178,4.178,0,0,0,.715,2.5m12.248,10.512h-3.065V6.767h3.065Z" transform="translate(-104.744 -3.536)" fill="#fff"/>
      <path id="패스_2194" data-name="패스 2194" d="M253.7,6.766v18.8h-3.065V13.6h-2.588v5.222H240.6a2.178,2.178,0,0,1-1.555-.545,1.929,1.929,0,0,1-.579-1.476V7.379h3.065V11.1h3.451V7.379h3.065v4.5h2.588V6.766Zm-8.718,6.062h-3.451v4.245h3.451Z" transform="translate(-124.627 -3.536)" fill="#fff"/>
      <path id="패스_2195" data-name="패스 2195" d="M283.083,25.565v-7.4a4.085,4.085,0,0,1-1,.465,4.541,4.541,0,0,1-1.407.193h-3.86a2.16,2.16,0,0,1-1.543-.534,1.91,1.91,0,0,1-.568-1.464V7.471h6.834V9.219h-3.815v7.855h3.065a6.477,6.477,0,0,0,1.351-.125,5.019,5.019,0,0,0,.942-.284v-9.9h2.906v5.108h1.816V6.767h2.905v18.8h-2.905V13.6h-1.816V25.565Z" transform="translate(-143.565 -3.536)" fill="#fff"/>
      <path id="패스_2196" data-name="패스 2196" d="M318.621,10.028a4.6,4.6,0,0,1,1.124,1.384,3.544,3.544,0,0,1,.42,1.68,3.669,3.669,0,0,1-.375,1.647,4.614,4.614,0,0,1-1.01,1.351,4.792,4.792,0,0,1-1.5.9,5.209,5.209,0,0,1-3.643,0,4.815,4.815,0,0,1-1.488-.9,4.28,4.28,0,0,1-1.021-1.351,3.766,3.766,0,0,1-.363-1.647,3.625,3.625,0,0,1,.409-1.68,4.452,4.452,0,0,1,1.112-1.384h-2.248V8.348h3.883V6.1h3.065V8.348h3.882v1.68Zm3.859,10.261H312.06V18.564h13.486v6.629H322.48Zm-8.275-9.013a3.115,3.115,0,0,0-.533,1.816,3.14,3.14,0,0,0,.533,1.85,1.424,1.424,0,0,0,2.52,0,3.144,3.144,0,0,0,.534-1.85,3.119,3.119,0,0,0-.534-1.816,1.414,1.414,0,0,0-2.52,0m11.34-1.022h3.065V12h-3.065v5.312H322.48V6.4h3.065Z" transform="translate(-162.03 -3.188)" fill="#fff"/>
      <path id="패스_2197" data-name="패스 2197" d="M353.748,13.785v7.56h1.521v-7.56h2.952v7.56h6.333V23.07H347.8V21.345h3v-7.56Zm-4.563-6.448h13.554V14.42a15.58,15.58,0,0,1-.307,3.3A7.374,7.374,0,0,1,361.58,20h-2.7a5.575,5.575,0,0,0,.7-2.327q.136-1.373.136-3.485V9.085H349.184Z" transform="translate(-181.764 -3.834)" fill="#fff"/>
      <path id="패스_2198" data-name="패스 2198" d="M402.828,25.565v-7.4a4.1,4.1,0,0,1-1,.465,4.541,4.541,0,0,1-1.407.193h-3.86a2.16,2.16,0,0,1-1.543-.534,1.91,1.91,0,0,1-.567-1.464V7.471h6.834V9.219H397.47v7.855h3.065a6.477,6.477,0,0,0,1.351-.125,5.035,5.035,0,0,0,.943-.284v-9.9h2.905v5.108h1.817V6.767h2.905v18.8h-2.905V13.6h-1.817V25.565Z" transform="translate(-206.145 -3.536)" fill="#fff"/>
      <path id="패스_2199" data-name="패스 2199" d="M438.366,10.028a4.6,4.6,0,0,1,1.124,1.384,3.545,3.545,0,0,1,.42,1.68,3.67,3.67,0,0,1-.375,1.647,4.612,4.612,0,0,1-1.01,1.351,4.789,4.789,0,0,1-1.5.9,5.211,5.211,0,0,1-3.644,0,4.815,4.815,0,0,1-1.487-.9,4.28,4.28,0,0,1-1.021-1.351,3.766,3.766,0,0,1-.363-1.647,3.624,3.624,0,0,1,.409-1.68,4.451,4.451,0,0,1,1.112-1.384h-2.248V8.348h3.882V6.1h3.065V8.348h3.882v1.68Zm3.859,10.261H431.8V18.564H445.29v6.629h-3.065Zm-8.275-9.013a3.115,3.115,0,0,0-.533,1.816,3.14,3.14,0,0,0,.533,1.85,1.424,1.424,0,0,0,2.52,0,3.141,3.141,0,0,0,.534-1.85,3.116,3.116,0,0,0-.534-1.816,1.414,1.414,0,0,0-2.52,0m11.34-1.022h3.065V12H445.29v5.312h-3.065V6.4h3.065Z" transform="translate(-224.61 -3.188)" fill="#fff"/>
      <path id="패스_2200" data-name="패스 2200" d="M479.1,14.976v1.635h-4.7V19.38H471.34V16.611h-4.177V14.976Zm-4.4-8.094a4.474,4.474,0,0,1,1.453.851,3.889,3.889,0,0,1,1,1.226,3.231,3.231,0,0,1,.363,1.5,3.274,3.274,0,0,1-.363,1.521,3.879,3.879,0,0,1-1,1.226,4.517,4.517,0,0,1-1.453.817,5.366,5.366,0,0,1-1.794.3,5.531,5.531,0,0,1-1.827-.3,4.489,4.489,0,0,1-1.464-.817,3.735,3.735,0,0,1-.988-1.226,3.349,3.349,0,0,1-.352-1.521,3.3,3.3,0,0,1,.352-1.5,3.744,3.744,0,0,1,.988-1.226,4.445,4.445,0,0,1,1.464-.851,5.356,5.356,0,0,1,1.827-.306,5.2,5.2,0,0,1,1.794.306m-1.067,16.834h10.511v1.748H472.7a2.2,2.2,0,0,1-1.532-.545,1.919,1.919,0,0,1-.6-1.5v-3.11h3.065ZM471.715,8.869a2.529,2.529,0,0,0-.488,1.589,2.529,2.529,0,0,0,.488,1.589,1.458,1.458,0,0,0,1.192.636,1.439,1.439,0,0,0,1.169-.636,2.532,2.532,0,0,0,.488-1.589,2.532,2.532,0,0,0-.488-1.589,1.439,1.439,0,0,0-1.169-.635,1.459,1.459,0,0,0-1.192.635m11.794-2.2v14.3h-3.065V19.244h-4.132V17.723h4.132V6.667Z" transform="translate(-244.145 -3.437)" fill="#fff"/>
      <path id="패스_2201" data-name="패스 2201" d="M93.91,61.946v.682l-.771.2a1.344,1.344,0,0,1,.211.74A1.494,1.494,0,0,1,92.8,64.8a2.393,2.393,0,0,1-1.534.443l-.242-.013-.2-.022a.446.446,0,0,0-.207.352q0,.291.739.291h.837a1.909,1.909,0,0,1,1.235.348,1.243,1.243,0,0,1,.425,1.021,1.515,1.515,0,0,1-.72,1.339,3.749,3.749,0,0,1-2.067.475,2.862,2.862,0,0,1-1.574-.359,1.14,1.14,0,0,1-.544-1.006,1.051,1.051,0,0,1,.278-.744,1.57,1.57,0,0,1,.814-.427.9.9,0,0,1-.361-.288.709.709,0,0,1,.009-.894,1.866,1.866,0,0,1,.471-.368,1.323,1.323,0,0,1-.614-.538,1.637,1.637,0,0,1-.227-.872,1.537,1.537,0,0,1,.524-1.246,2.265,2.265,0,0,1,1.5-.44,3.852,3.852,0,0,1,.491.037c.19.025.31.043.363.055Zm-3.8,5.618a.487.487,0,0,0,.266.436,1.466,1.466,0,0,0,.746.159,2.641,2.641,0,0,0,1.131-.2.6.6,0,0,0,.41-.542.383.383,0,0,0-.243-.383,1.987,1.987,0,0,0-.749-.106h-.7a1.052,1.052,0,0,0-.618.174.536.536,0,0,0-.249.46m.488-4.007a1,1,0,0,0,.183.634.664.664,0,0,0,.557.233.65.65,0,0,0,.555-.233,1.032,1.032,0,0,0,.176-.634q0-.889-.731-.889t-.74.889" transform="translate(-46.485 -32.325)" fill="#fff"/>
      <path id="패스_2202" data-name="패스 2202" d="M106.224,65.406a1.357,1.357,0,0,1-.526,1.154,2.6,2.6,0,0,1-1.574.4,4.913,4.913,0,0,1-.916-.073,3.431,3.431,0,0,1-.709-.213V65.56a4.667,4.667,0,0,0,.843.3,3.414,3.414,0,0,0,.825.119q.73,0,.731-.423a.353.353,0,0,0-.1-.257,1.4,1.4,0,0,0-.335-.225q-.238-.125-.634-.293a3.984,3.984,0,0,1-.834-.44,1.238,1.238,0,0,1-.387-.465,1.534,1.534,0,0,1-.121-.645A1.17,1.17,0,0,1,103,62.212a2.479,2.479,0,0,1,1.442-.359,4.092,4.092,0,0,1,1.73.388l-.4.969a7.324,7.324,0,0,0-.691-.26,2.162,2.162,0,0,0-.656-.1q-.594,0-.594.321a.378.378,0,0,0,.191.313,5.191,5.191,0,0,0,.839.391,3.916,3.916,0,0,1,.845.436,1.283,1.283,0,0,1,.4.466,1.43,1.43,0,0,1,.128.63" transform="translate(-53.562 -32.325)" fill="#fff"/>
      <path id="패스_2203" data-name="패스 2203" d="M114.187,70.22a.737.737,0,0,1,.2-.559.8.8,0,0,1,.577-.19.78.78,0,0,1,.566.194.855.855,0,0,1,0,1.1.767.767,0,0,1-.564.2.789.789,0,0,1-.572-.2.732.732,0,0,1-.2-.552" transform="translate(-59.675 -36.306)" fill="#fff"/>
      <path id="패스_2204" data-name="패스 2204" d="M126.591,64.858h-1.343V61.983q0-1.066-.792-1.066a.9.9,0,0,0-.814.383,2.337,2.337,0,0,0-.251,1.242v2.316h-1.343V58.007h1.343v1.4c0,.108-.01.364-.031.766l-.031.4h.071a1.555,1.555,0,0,1,1.426-.722,1.743,1.743,0,0,1,1.316.467,1.854,1.854,0,0,1,.449,1.338Z" transform="translate(-63.783 -30.315)" fill="#fff"/>
      <path id="패스_2205" data-name="패스 2205" d="M135.064,62.047h1.47l.929,2.769a3.855,3.855,0,0,1,.164.854h.026a3.808,3.808,0,0,1,.19-.854l.911-2.769h1.44L138.11,67.6a2.4,2.4,0,0,1-.817,1.153,2.061,2.061,0,0,1-1.239.383,3.137,3.137,0,0,1-.683-.075V68a2.327,2.327,0,0,0,.529.057.951.951,0,0,0,.623-.218,1.413,1.413,0,0,0,.416-.658l.079-.243Z" transform="translate(-70.586 -32.426)" fill="#fff"/>
      <path id="패스_2206" data-name="패스 2206" d="M151.032,66.957q-2.3,0-2.3-2.523a2.69,2.69,0,0,1,.625-1.917,2.344,2.344,0,0,1,1.792-.663,3.413,3.413,0,0,1,1.532.335l-.4,1.039q-.317-.127-.59-.209a1.9,1.9,0,0,0-.546-.081q-1.048,0-1.048,1.488,0,1.444,1.048,1.444a2.4,2.4,0,0,0,.718-.1,2.574,2.574,0,0,0,.66-.324v1.149a2.171,2.171,0,0,1-.658.286,3.721,3.721,0,0,1-.839.079" transform="translate(-77.73 -32.325)" fill="#fff"/>
      <path id="패스_2207" data-name="패스 2207" d="M164.61,66.969l-.181-.63h-.07a1.42,1.42,0,0,1-.612.531,2.09,2.09,0,0,1-.9.187,1.719,1.719,0,0,1-1.308-.465,1.867,1.867,0,0,1-.44-1.337V62.047h1.342v2.875a1.377,1.377,0,0,0,.19.8.689.689,0,0,0,.6.266.906.906,0,0,0,.814-.376,2.329,2.329,0,0,0,.251-1.248V62.047h1.343v4.922Z" transform="translate(-84.191 -32.426)" fill="#fff"/>
      <path id="패스_2208" data-name="패스 2208" d="M175.246,70.22a.737.737,0,0,1,.2-.559.8.8,0,0,1,.577-.19.78.78,0,0,1,.566.194.855.855,0,0,1,0,1.1.767.767,0,0,1-.564.2.789.789,0,0,1-.572-.2.732.732,0,0,1-.2-.552" transform="translate(-91.586 -36.306)" fill="#fff"/>
      <path id="패스_2209" data-name="패스 2209" d="M185.876,66.859l-.26-.669h-.035a1.989,1.989,0,0,1-.7.592,2.255,2.255,0,0,1-.936.165,1.511,1.511,0,0,1-1.116-.405,1.555,1.555,0,0,1-.408-1.153,1.3,1.3,0,0,1,.548-1.156,3.174,3.174,0,0,1,1.654-.411l.854-.027v-.216a.67.67,0,0,0-.766-.749,3.491,3.491,0,0,0-1.387.357l-.444-.907a3.994,3.994,0,0,1,1.884-.445,2.344,2.344,0,0,1,1.519.432,1.593,1.593,0,0,1,.528,1.312v3.28Zm-.4-2.28-.519.018a1.665,1.665,0,0,0-.872.211.664.664,0,0,0-.286.59q0,.568.652.568a1.031,1.031,0,0,0,.747-.269.942.942,0,0,0,.279-.713Z" transform="translate(-95.337 -32.316)" fill="#fff"/>
      <path id="패스_2210" data-name="패스 2210" d="M198.264,66.957q-2.3,0-2.3-2.523a2.688,2.688,0,0,1,.625-1.917,2.344,2.344,0,0,1,1.792-.663,3.413,3.413,0,0,1,1.532.335l-.4,1.039q-.317-.127-.59-.209a1.9,1.9,0,0,0-.546-.081q-1.048,0-1.048,1.488,0,1.444,1.048,1.444a2.4,2.4,0,0,0,.717-.1,2.568,2.568,0,0,0,.661-.324v1.149a2.17,2.17,0,0,1-.658.286,3.721,3.721,0,0,1-.839.079" transform="translate(-102.414 -32.325)" fill="#fff"/>
      <path id="패스_2211" data-name="패스 2211" d="M207.986,70.22a.737.737,0,0,1,.2-.559.8.8,0,0,1,.577-.19.78.78,0,0,1,.566.194.855.855,0,0,1,0,1.1.766.766,0,0,1-.564.2.789.789,0,0,1-.572-.2.732.732,0,0,1-.2-.552" transform="translate(-108.696 -36.306)" fill="#fff"/>
      <path id="패스_2212" data-name="패스 2212" d="M217.136,62.181l.586-.749,1.378-1.5h1.515l-1.955,2.136,2.074,2.787h-1.55l-1.418-1.994-.577.462v1.532h-1.343V58.007h1.343v3.055l-.071,1.119Z" transform="translate(-112.804 -30.315)" fill="#fff"/>
      <path id="패스_2213" data-name="패스 2213" d="M232.384,61.853a2.173,2.173,0,0,1,.453.04l-.1,1.259a1.529,1.529,0,0,0-.4-.044,1.424,1.424,0,0,0-1,.33,1.194,1.194,0,0,0-.359.925v2.505h-1.343V61.946h1.017l.2.828h.066a1.855,1.855,0,0,1,.619-.667,1.526,1.526,0,0,1,.847-.253" transform="translate(-120.011 -32.325)" fill="#fff"/>
      <path id="패스_2214" data-name="패스 2214" d="M34.56,26.9v.625H28.475v-.62L25.551,26.9v.625H20.925v2.621h.449a3.336,3.336,0,0,0-.686,2.176,3.429,3.429,0,0,0,.844,2.149,3.6,3.6,0,0,0,2.819,1.3h5.658V35.2h.322v.552l8.362.015,0-2.716h-1.2V30.21h1.209l0-2.684H37.526V26.9Zm.149.774V27.05l2.667-.005v.629h1.173c0,.137,0,2.251-.005,2.387H37.335V33.2h1.2c0,.137,0,2.28,0,2.418l-8.065-.013v-.553H29.86v.566H24.35a3.452,3.452,0,0,1-2.7-1.241,3.284,3.284,0,0,1-.811-2.056,3.172,3.172,0,0,1,.74-2.2l.108-.123-.61,0V27.674H25.7V27.05l2.624,0v.62Z" transform="translate(-10.811 -14.055)" fill="#fff"/>
      <path id="패스_2215" data-name="패스 2215" d="M33.532,32.824a.74.74,0,1,0,.814.736.756.756,0,0,0-.814-.736M26.8,31.486a.63.63,0,1,0-.624.713.665.665,0,0,0,.624-.713m6.634-.531a.69.69,0,1,0-.683.8.722.722,0,0,0,.683-.8m5.12-.679V28.735H37.364v-.6H35.63v.6H28.355v-.6H26.62v.6H22.053v1.541h1.374a2.694,2.694,0,0,0-1.567,2.653,2.957,2.957,0,0,0,3.025,2.794h5.036v-.54h1.425v.54h7.2V34.184H37.364V30.276Zm-13.066-.543h1.381v.406H25.485Zm-.6,1.753a.916.916,0,0,1,.479-.772h-.49v-.406h2.595v.406h-.489a.917.917,0,0,1,.477.772c0,.544-.554.986-1.286.986s-1.286-.442-1.286-.986m3.764,3.069-2.418,0a.725.725,0,0,1-.806-.76v-.94h.765v1.3h2.459Zm.528-3.233H28.6v1.728h-.7V29.733h.7v1.182h.575Zm2.169-.367a1.43,1.43,0,1,1,1.4,1.144,1.279,1.279,0,0,1-1.4-1.144m4.3-.22h-.6v.586h.6v.405h-.6V33.56h0c-.006.622-.675,1.129-1.519,1.129s-1.515-.507-1.52-1.129.677-1.126,1.52-1.126a1.888,1.888,0,0,1,.814.177V29.733h.706v.6h.6Z" transform="translate(-11.424 -14.705)" fill="#fff"/>
      <path id="패스_2216" data-name="패스 2216" d="M32.993,52.946H31.16v-.385l.658-.665c.2-.2.322-.338.381-.416a.886.886,0,0,0,.13-.214.554.554,0,0,0,.039-.2.3.3,0,0,0-.086-.234.333.333,0,0,0-.233-.078.672.672,0,0,0-.3.07,1.545,1.545,0,0,0-.3.2l-.3-.355a1.815,1.815,0,0,1,.321-.232,1.145,1.145,0,0,1,.278-.1,1.358,1.358,0,0,1,.337-.038,1.025,1.025,0,0,1,.435.088.71.71,0,0,1,.292.252.668.668,0,0,1,.1.369.9.9,0,0,1-.064.34,1.291,1.291,0,0,1-.2.325,4.756,4.756,0,0,1-.471.475l-.337.317v.025h1.142Z" transform="translate(-16.281 -26.281)" fill="#fff"/>
      <path id="패스_2217" data-name="패스 2217" d="M37.368,51.63a1.821,1.821,0,0,1-.225,1.016.874.874,0,0,1-1.378-.011,1.8,1.8,0,0,1-.23-1,1.844,1.844,0,0,1,.224-1.023.778.778,0,0,1,.69-.329.769.769,0,0,1,.686.345,1.8,1.8,0,0,1,.232,1.007m-1.282,0a2.031,2.031,0,0,0,.083.691.288.288,0,0,0,.281.209.293.293,0,0,0,.281-.211,2.007,2.007,0,0,0,.085-.689,1.971,1.971,0,0,0-.087-.692.291.291,0,0,0-.56,0,2.049,2.049,0,0,0-.084.692" transform="translate(-18.571 -26.276)" fill="#fff"/>
      <path id="패스_2218" data-name="패스 2218" d="M41.766,51.63a1.82,1.82,0,0,1-.226,1.016.873.873,0,0,1-1.377-.011,1.792,1.792,0,0,1-.23-1,1.844,1.844,0,0,1,.224-1.023.871.871,0,0,1,1.376.016,1.805,1.805,0,0,1,.232,1.007m-1.283,0a2.031,2.031,0,0,0,.083.691.293.293,0,0,0,.561,0,2.007,2.007,0,0,0,.085-.689,1.974,1.974,0,0,0-.086-.692.293.293,0,0,0-.279-.211.29.29,0,0,0-.28.211,2,2,0,0,0-.084.692" transform="translate(-20.869 -26.276)" fill="#fff"/>
      <path id="패스_2219" data-name="패스 2219" d="M46.185,52.946H44.353v-.385l.658-.665c.2-.2.322-.338.382-.416a.914.914,0,0,0,.129-.214.536.536,0,0,0,.039-.2.3.3,0,0,0-.086-.234.333.333,0,0,0-.233-.078.671.671,0,0,0-.3.07,1.558,1.558,0,0,0-.3.2l-.3-.355a1.8,1.8,0,0,1,.321-.232,1.13,1.13,0,0,1,.278-.1,1.361,1.361,0,0,1,.337-.038,1.027,1.027,0,0,1,.435.088.72.72,0,0,1,.291.252.668.668,0,0,1,.105.369.928.928,0,0,1-.064.34,1.293,1.293,0,0,1-.2.325,4.793,4.793,0,0,1-.471.475l-.338.317v.025h1.142Z" transform="translate(-23.176 -26.281)" fill="#fff"/>
      <path id="패스_2220" data-name="패스 2220" d="M18.942,0a18.941,18.941,0,1,0,18.94,18.942A18.964,18.964,0,0,0,18.942,0m0,37.6A18.654,18.654,0,1,1,37.6,18.942,18.676,18.676,0,0,1,18.942,37.6" transform="translate(0 0)" fill="#fff"/>
      <path id="패스_2221" data-name="패스 2221" d="M19.107,5.076A.265.265,0,0,0,19.294,5a.248.248,0,0,0,.054-.193c-.01-.148-.105-.216-.284-.2l-.161.011.032.474ZM20.155,2.32A17.833,17.833,0,1,0,37.987,20.154,17.834,17.834,0,0,0,20.155,2.32M36.469,19.492l-.971.393.994.336.02.621-1.637-.647-1.035.032-.018-.578,1.013-.032,1.615-.749ZM35.21,22.8a1.59,1.59,0,0,1-.316.875,1.585,1.585,0,0,1-.3-.88,1.6,1.6,0,0,1,.317-.875,1.6,1.6,0,0,1,.3.881m-.857,2.562a2.8,2.8,0,0,1-.683-1.235,2.268,2.268,0,0,1,.03-1.238,2.138,2.138,0,0,1,.693,1.134,2.655,2.655,0,0,1-.04,1.339M36.4,18.475l-.578.1-.085-.51L33.7,18.4l-.093-.565,2.038-.338-.085-.512.578-.1ZM36,16.368l-2.56.691-.151-.556,2.561-.691Zm-2.711,11.15a2.8,2.8,0,0,1-.458-1.335,2.281,2.281,0,0,1,.243-1.214,2.147,2.147,0,0,1,.488,1.234,2.663,2.663,0,0,1-.273,1.315M35.1,14.153a.819.819,0,0,1,.4.476,1.393,1.393,0,0,1,.06.7l-.58.032a1.091,1.091,0,0,0-.022-.541.229.229,0,0,0-.1-.135.166.166,0,0,0-.132,0,.191.191,0,0,0-.108.111,2.291,2.291,0,0,0-.086.407,1,1,0,0,1-.176.473.853.853,0,0,1-.378.258.944.944,0,0,1-.446.062.722.722,0,0,1-.38-.165.887.887,0,0,1-.257-.377A1.454,1.454,0,0,1,32.8,15.1a1.145,1.145,0,0,1,.015-.326l.6-.226a1.516,1.516,0,0,0-.032.377,1.022,1.022,0,0,0,.06.326.265.265,0,0,0,.118.155.184.184,0,0,0,.155.005.17.17,0,0,0,.079-.056.3.3,0,0,0,.052-.1c.013-.043.033-.151.06-.325a1.309,1.309,0,0,1,.1-.372.7.7,0,0,1,.183-.233,1.023,1.023,0,0,1,.3-.168.754.754,0,0,1,.611,0M34.478,12.5q.412.76-.277,1.133a.816.816,0,0,1-.8.024l-.721,1.094-.31-.572.634-.854-.069-.128-.849.459-.273-.5,2.332-1.263Zm-1.446-2.212.741,1.019-.465.338-.4-.555-.338.244.374.514-.465.339-.374-.515-.4.295.4.555-.473.343-.74-1.019ZM31.72,8.815l-.773,1.137a5.247,5.247,0,0,1-.383.5c.066-.054.151-.117.257-.19s.19-.129.253-.168l1.182-.719.443.465-2.4,1.327-.466-.488,1.441-2.332Zm-.827-.771-1.711,2.028-.44-.372,1.711-2.027Zm-2.1-1.553-.352,1.967.007,0q.2-.347.332-.551L29.434,6.9l.429.277L28.422,9.409,27.791,9l.365-1.99L28.144,7c-.145.256-.258.449-.343.58l-.65,1-.426-.275,1.442-2.227Zm-3.708-.039.632-1.484.53.225-.61,1.433a.767.767,0,0,0-.083.408.314.314,0,0,0,.464.2.8.8,0,0,0,.233-.348l.61-1.429.528.225-.626,1.468a1.24,1.24,0,0,1-.534.65.83.83,0,0,1-.738,0,.821.821,0,0,1-.5-.517,1.206,1.206,0,0,1,.1-.826M22.55,4.179l.683.135c.566.11.8.423.7.935a.82.82,0,0,1-.49.63l.384,1.252-.638-.125-.256-1.034-.141-.027-.186.946-.562-.11Zm-1.94-.16,1.257.079-.037.574-.684-.044-.028.417.635.04-.036.573-.635-.04-.032.5.686.043-.037.583-1.256-.08ZM20.155,8a12.14,12.14,0,1,1-12.14,12.14A12.138,12.138,0,0,1,20.155,8M29.38,31.651a2.753,2.753,0,0,1-.829,1.086,2.875,2.875,0,0,1,.166-1.431,2.327,2.327,0,0,1,.76-1.006,2.186,2.186,0,0,1-.1,1.351m-1.868,1.2a2.713,2.713,0,0,1-1.051.871,2.865,2.865,0,0,1,.484-1.353,2.317,2.317,0,0,1,.969-.81,2.176,2.176,0,0,1-.4,1.292m-13.551.871h0a2.734,2.734,0,0,1-1.051-.871,2.167,2.167,0,0,1-.4-1.292,2.317,2.317,0,0,1,.968.81,2.848,2.848,0,0,1,.484,1.353m-2.091-.986a2.753,2.753,0,0,1-.829-1.086,2.185,2.185,0,0,1-.1-1.351,2.322,2.322,0,0,1,.759,1.006,2.869,2.869,0,0,1,.166,1.431M19.034,4.062a1.047,1.047,0,0,1,.651.117.586.586,0,0,1,.243.484.754.754,0,0,1-.066.387.421.421,0,0,1-.227.219v.018a.486.486,0,0,1,.3.2.786.786,0,0,1,.116.388.748.748,0,0,1-.179.582A.815.815,0,0,1,19.3,6.7l-.824.055L18.295,4.11ZM16.4,4.456l.559.887L17.11,4.3l.606-.128L17.37,5.9l.215,1.013-.566.12-.21-.992L15.787,4.585Zm-2.116.792a.907.907,0,0,1,.456-.345,1.261,1.261,0,0,1,.682-.05l.028.591a1.741,1.741,0,0,0-.261-.029.7.7,0,0,0-.253.042.355.355,0,0,0-.229.307,1.217,1.217,0,0,0,.091.582q.262.719.7.559a.77.77,0,0,0,.239-.139,2.515,2.515,0,0,0,.209-.2l.208.57a1.216,1.216,0,0,1-.515.343.857.857,0,0,1-.81-.074,1.683,1.683,0,0,1-.586-.858,1.967,1.967,0,0,1-.131-.723,1.044,1.044,0,0,1,.172-.573m-3.1,1.826a1,1,0,0,1,.512-.736,1.436,1.436,0,0,1,.673-.22l.141.574a.934.934,0,0,0-.5.144.441.441,0,0,0-.224.378,1.053,1.053,0,0,0,.19.569,1.058,1.058,0,0,0,.4.417.4.4,0,0,0,.407-.022.823.823,0,0,0,.184-.15l-.219-.353-.321.2L12.13,7.4l.779-.481.751,1.216a2.074,2.074,0,0,1-.613.567.9.9,0,0,1-.833.1,1.664,1.664,0,0,1-.76-.723,1.534,1.534,0,0,1-.277-1m-2.018,1.2,1.8.871.007-.006q-.281-.286-.442-.47l-.793-.9.383-.338,1.755,1.989-.563.5L9.486,9.029l-.01.008q.312.312.466.487l.791.9-.38.336L8.6,8.768ZM7.672,9.792l2.524,1.1-.389.492-.455-.226-.428.54.324.392-.391.494L7.2,10.392ZM5.9,12.372l1.032.188-.661-.815.317-.535,1.037,1.424.892.527-.295.5-.873-.517L5.58,12.91Zm-1.057,2.29,2-.049,0-.009c-.254-.085-.457-.156-.607-.215l-1.117-.436.185-.476,2.47.964-.273.7-2.022.042,0,.012c.28.089.493.163.637.219l1.113.434-.184.473-2.47-.963ZM7.594,26.184a2.8,2.8,0,0,1-.46,1.335A2.685,2.685,0,0,1,6.862,26.2a2.141,2.141,0,0,1,.489-1.234,2.286,2.286,0,0,1,.243,1.214M4.225,16.663l2.749-.147-.127.614H6.34l-.14.676.464.205-.127.617L4.07,17.412Zm2.528,7.469a2.787,2.787,0,0,1-.685,1.235,2.668,2.668,0,0,1-.039-1.339,2.134,2.134,0,0,1,.693-1.134,2.279,2.279,0,0,1,.03,1.238M3.821,19.956,4.8,20l.029-.665L3.85,19.29l.026-.575,2.65.117-.025.576L5.42,19.36l-.03.665,1.08.048-.025.576-2.65-.118Zm2,2.843a1.579,1.579,0,0,1-.3.88,1.407,1.407,0,0,1-.019-1.755,1.607,1.607,0,0,1,.317.875m-2.069.344a2.648,2.648,0,0,1,1.378.8,3.228,3.228,0,0,1,.707,1.511h0a3.249,3.249,0,0,1-1.412-.885,2.86,2.86,0,0,1-.672-1.428m.714,2.605h0a2.669,2.669,0,0,1,1.5.55,3.241,3.241,0,0,1,.956,1.366,3.257,3.257,0,0,1-1.545-.627,2.874,2.874,0,0,1-.909-1.288m4.1,4.543c-.068.468-.372.99-.649.95s-.424-.625-.358-1.095a1.245,1.245,0,0,1,.22-.562,1.223,1.223,0,0,1-.6.053c-.47-.067-.993-.373-.953-.65s.627-.421,1.1-.355a1.2,1.2,0,0,1,.56.218,1.23,1.23,0,0,1-.052-.6c.065-.455.35-.957.619-.957l.03,0c.277.041.425.627.357,1.1a1.2,1.2,0,0,1-.22.56,1.217,1.217,0,0,1,.6-.051c.468.066.992.37.953.648s-.626.423-1.1.354a1.208,1.208,0,0,1-.561-.219,1.226,1.226,0,0,1,.052.6m1.522,2.729a2.72,2.72,0,0,1-1.3-.725,2.5,2.5,0,0,1,.989-.2,2.265,2.265,0,0,1,.508.056,3.06,3.06,0,0,1,1.373.772,3.07,3.07,0,0,1-1.571.1m2.281,1.391a2.58,2.58,0,0,1-1.363-.394,2.373,2.373,0,0,1,1.361-.454h.012a2.9,2.9,0,0,1,1.428.419,2.922,2.922,0,0,1-1.438.429M16.7,34.7a1.214,1.214,0,0,1-.575.136,1.194,1.194,0,0,1,.373.454c.206.417.249,1.007,0,1.126s-.689-.27-.894-.686a1.221,1.221,0,0,1-.135-.575,1.188,1.188,0,0,1-.456.374c-.415.2-1.005.247-1.127,0s.272-.689.689-.894a1.2,1.2,0,0,1,.573-.132,1.224,1.224,0,0,1-.373-.455c-.206-.416-.249-1.008,0-1.129a.221.221,0,0,1,.1-.022c.252,0,.612.347.792.711a1.192,1.192,0,0,1,.134.573,1.2,1.2,0,0,1,.455-.375c.417-.2,1.007-.245,1.128,0s-.273.689-.688.892m3.459,1.421a.63.63,0,1,1,.629-.63.63.63,0,0,1-.629.63m6.376-.59c-.122.245-.714.2-1.127,0a1.216,1.216,0,0,1-.457-.374,1.219,1.219,0,0,1-.134.575c-.2.416-.647.81-.892.686s-.2-.709,0-1.126a1.188,1.188,0,0,1,.372-.454,1.216,1.216,0,0,1-.574-.136c-.417-.2-.811-.646-.688-.892s.711-.2,1.127,0a1.227,1.227,0,0,1,.455.375,1.194,1.194,0,0,1,.135-.573c.179-.365.539-.711.791-.711a.217.217,0,0,1,.1.022c.247.121.2.713,0,1.129a1.242,1.242,0,0,1-.373.455,1.2,1.2,0,0,1,.572.132c.418.205.811.649.69.894m1.517-1.119a2.916,2.916,0,0,1-1.437-.429,2.887,2.887,0,0,1,1.427-.419h.014a2.376,2.376,0,0,1,1.36.454,2.583,2.583,0,0,1-1.363.394m2.28-1.391a3.068,3.068,0,0,1-1.57-.1,3.056,3.056,0,0,1,1.373-.772,2.274,2.274,0,0,1,.508-.056,2.5,2.5,0,0,1,.989.2,2.723,2.723,0,0,1-1.3.725m2.907-3.382a1.223,1.223,0,0,1-.6-.053,1.239,1.239,0,0,1,.219.562c.067.469-.078,1.056-.355,1.095s-.583-.482-.649-.95a1.232,1.232,0,0,1,.052-.6,1.215,1.215,0,0,1-.562.219c-.47.069-1.057-.077-1.1-.354s.483-.582.953-.648a1.213,1.213,0,0,1,.6.051,1.209,1.209,0,0,1-.219-.56c-.068-.471.077-1.056.356-1.1l.03,0c.27,0,.553.5.62.957a1.252,1.252,0,0,1-.053.6,1.205,1.205,0,0,1,.56-.218c.47-.066,1.057.077,1.1.355s-.482.582-.953.65m2.716-3.89a2.876,2.876,0,0,1-.912,1.288,3.249,3.249,0,0,1-1.544.627,3.231,3.231,0,0,1,.956-1.366,2.654,2.654,0,0,1,1.5-.55Zm-1.372-.292a3.235,3.235,0,0,1,.7-1.511,2.654,2.654,0,0,1,1.381-.8,2.875,2.875,0,0,1-.672,1.428,3.233,3.233,0,0,1-1.413.885m-9.575,8.762a.5.5,0,1,0,.229.672.5.5,0,0,0-.229-.672M4.912,17.131c-.157,0-.268,0-.336-.009.059.021.155.059.288.113s.394.166.784.337l.09-.443-.444,0H4.912M32.146,28.763a.514.514,0,0,0,.073,1.022.637.637,0,0,0,.073,0,.514.514,0,0,0-.146-1.018M33.9,13.139a.251.251,0,0,0,.1-.389l-.053-.1-.534.288.052.095q.143.266.434.106M8.711,29.344a.512.512,0,1,0-.581.437.665.665,0,0,0,.074,0,.513.513,0,0,0,.507-.441m6.7,4.875a.5.5,0,1,0,.674.229.5.5,0,0,0-.674-.229m7.94-29.05q.054-.269-.236-.326l-.112-.022-.116.595L23,5.436c.2.039.316-.05.359-.267m-4.385.443.036.555.2-.014c.179-.011.261-.112.249-.3a.268.268,0,0,0-.085-.2.292.292,0,0,0-.213-.057ZM8.076,10.517q-.209-.106-.3-.157c.043.045.112.121.207.23s.279.325.55.652l.28-.354-.4-.2c-.089-.043-.2-.1-.343-.172" transform="translate(-1.214 -1.212)" fill="#fff"/>
    </g>
  </g>
</svg>
